<?xml version="1.0" encoding="UTF-8"?>
<svg width="40px" height="27px" viewBox="0 0 40 27" version="1.1" xmlns="http://www.w3.org/2000/svg" xmlns:xlink="http://www.w3.org/1999/xlink">
    <g id="07-08---Department-and-Category-Landing-Pages-" stroke="none" stroke-width="1" fill="none" fill-rule="evenodd">
        <g id="SCR---Home---Tablet---07.1" transform="translate(-540.000000, -920.000000)">
            <g id="Brand-/-LiquorShop-/-Stacked-no-logo" transform="translate(540.000000, 920.000000)">
                <path d="M25.0020647,16.2131821 L27.3805641,16.2131821 L27.3805641,17.0118352 L27.4197928,17.0118352 C27.9091195,16.3722888 28.5956222,16 29.5205942,16 C31.3313095,16 32.375,17.6243439 32.375,19.5949787 C32.375,21.8183124 31.2115587,23.2294741 29.4142637,23.2294741 C28.6080102,23.2294741 27.9865447,22.9237397 27.537479,22.3642666 L27.4982503,22.3642666 L27.4982503,26.5 L25,26.5 L25,16.2131821 L25.0020647,16.2131821 Z M29.8395857,19.7010498 C29.8395857,18.6621769 29.4163284,18.0101515 28.6761443,18.0101515 C27.9101519,18.0101515 27.4074048,18.7287313 27.4074048,19.7010498 C27.4074048,20.6858473 27.9101519,21.3784292 28.6761443,21.3784292 C29.4163284,21.3784292 29.8395857,20.7388828 29.8395857,19.7010498" id="Shape" fill="#424142" fill-rule="nonzero"></path>
                <rect id="Rectangle" fill="#424142" fill-rule="evenodd" x="0" y="24.5" width="24.375" height="2"></rect>
                <polygon id="Path" fill="#008996" fill-rule="nonzero" points="0 0.125 2.78941681 0.125 2.78941681 7.24636771 6.875 7.24636771 6.875 9.625 0 9.625"></polygon>
                <path d="M7.75,0.125 L10.25,0.125 L10.25,2.02520756 L7.75,2.02520756 L7.75,0.125 Z M7.75,2.84921892 L10.25,2.84921892 L10.25,9.625 L7.75,9.625 L7.75,2.84921892 Z" id="Shape" fill="#008996" fill-rule="nonzero"></path>
                <path d="M15.8757174,9.08722888 L15.8364887,9.08722888 C15.387423,9.67269981 14.7659574,9.9794741 13.9338956,9.9794741 C12.1634413,9.9794741 11,8.56831237 11,6.34497871 C11,4.37434386 12.0178821,2.75 13.999965,2.75 C14.8196389,2.75 15.4937535,3.10980984 15.9562395,3.84190849 L15.9965006,3.84190849 L15.9965006,2.96318213 L18.375,2.96318213 L18.375,13.25 L15.8767497,13.25 L15.8767497,9.08722888 L15.8757174,9.08722888 Z M15.9675952,6.41049322 C15.9675952,5.43817471 15.4658805,4.71959493 14.6988557,4.71959493 C13.9586716,4.71959493 13.5354143,5.37162028 13.5354143,6.41049322 C13.5354143,7.44936615 13.9586716,8.08787264 14.6988557,8.08787264 C15.4658805,8.08787264 15.9675952,7.39633059 15.9675952,6.41049322" id="Shape" fill="#008996" fill-rule="nonzero"></path>
                <path d="M23.8439782,9.66190229 L23.8439782,8.78352391 L23.80433,8.78352391 C23.2836861,9.48830561 22.6159264,9.875 21.6810628,9.875 C20.0513117,9.875 19.25,8.81055094 19.25,7.25337838 L19.25,2.875 L21.7749665,2.875 L21.7749665,6.65462578 C21.7749665,7.35940748 22.0817186,7.73258836 22.6827023,7.73258836 C23.3368982,7.73258836 23.7250335,7.26689189 23.7250335,6.53508316 L23.7250335,2.875 L26.25,2.875 L26.25,9.66190229 L23.8439782,9.66190229 Z" id="Path" fill="#008996" fill-rule="nonzero"></path>
                <path d="M27,6.25628068 C27,4.17946867 28.4535274,2.625 30.7009204,2.625 C32.9472809,2.625 34.375,4.17946867 34.375,6.25628068 C34.375,8.33309269 32.9472809,9.875 30.7009204,9.875 C28.4545598,9.875 27,8.33309269 27,6.25628068 M31.837521,6.25628068 C31.837521,5.10377563 31.4411044,4.3260179 30.6740796,4.3260179 C29.9070549,4.3260179 29.537479,5.10377563 29.537479,6.25628068 C29.537479,7.40878573 29.9070549,8.18654346 30.6740796,8.18654346 C31.4411044,8.18654346 31.837521,7.40878573 31.837521,6.25628068" id="Shape" fill="#008996" fill-rule="nonzero"></path>
                <path d="M37.503678,3.93275862 L37.5428927,3.93275862 C38.084674,3.07323838 38.7317157,2.75 39.5903101,2.75 C39.7884473,2.75 39.9205387,2.77728636 40,2.81716642 L40,4.98013493 L39.9473698,4.98013493 C38.4809483,4.72511244 37.6223539,5.39677661 37.6223539,6.9416042 L37.6223539,9.75 L35.125,9.75 L35.125,2.89797601 L37.5026461,2.89797601 L37.5026461,3.93275862 L37.503678,3.93275862 Z" id="Path" fill="#008996" fill-rule="nonzero"></path>
                <path d="M0,19.8771624 L2.85172034,19.8771624 C2.94538998,20.632955 3.53134566,20.9901447 4.45034897,20.9901447 C4.99675523,20.9901447 5.6628505,20.7779016 5.6628505,20.2084688 C5.6628505,19.6380006 5.02381535,19.4930541 3.85086323,19.2010904 C2.2522346,18.8035228 0.319517571,18.2599733 0.319517571,16.2452165 C0.319517571,14.0720539 2.10444472,13.25 4.25052039,13.25 C6.22278683,13.25 8.03477409,14.0720539 8.0743235,16.1396126 L5.31627281,16.1396126 C5.23613322,15.6229818 4.86353618,15.2916754 4.10377127,15.2916754 C3.49075548,15.2916754 3.0640382,15.5701798 3.0640382,15.9542881 C3.0640382,16.5112969 3.87688258,16.5910175 5.30274275,16.9347479 C6.90137137,17.3188562 8.5,17.9421262 8.5,19.956883 C8.5,22.0244417 6.64846333,23.125 4.39622873,23.125 C1.9181462,23.1239647 0.0395494061,22.0637843 0,19.8771624" id="Path" fill="#424142" fill-rule="nonzero"></path>
                <path d="M11.7649265,16.8692648 L11.8044334,16.8692648 C12.3097059,16.2849847 12.922063,15.8864704 13.8671098,15.8864704 C15.4380291,15.8864704 16.25,16.9356839 16.25,18.4903048 L16.25,22.875 L13.7350735,22.875 L13.7350735,19.1015676 C13.7350735,18.396903 13.4418907,17.9319696 12.7900267,17.9319696 C12.1516783,17.9319696 11.7649265,18.4903048 11.7649265,19.2209144 L11.7649265,22.8739622 L9.25,22.8739622 L9.25,13.375 L11.7649265,13.375 L11.7649265,16.8692648 Z" id="Path" fill="#424142" fill-rule="nonzero"></path>
                <path d="M16.875,19.5062807 C16.875,17.4294687 18.3285274,15.875 20.5759204,15.875 C22.8222809,15.875 24.25,17.4294687 24.25,19.5062807 C24.25,21.5830927 22.8222809,23.125 20.5759204,23.125 C18.3285274,23.125 16.875,21.5830927 16.875,19.5062807 M21.712521,19.5062807 C21.712521,18.3537756 21.3161044,17.5760179 20.5490796,17.5760179 C19.7820549,17.5760179 19.412479,18.3537756 19.412479,19.5062807 C19.412479,20.6587857 19.7820549,21.4365435 20.5490796,21.4365435 C21.3150721,21.4365435 21.712521,20.6587857 21.712521,19.5062807" id="Shape" fill="#424142" fill-rule="nonzero"></path>
            </g>
        </g>
    </g>
</svg>