<?xml version="1.0" encoding="UTF-8"?>
<svg width="32px" height="32px" viewBox="0 0 32 32" version="1.1" xmlns="http://www.w3.org/2000/svg" xmlns:xlink="http://www.w3.org/1999/xlink">
    <g id="5.0.0-------Basics" stroke="none" stroke-width="1" fill="none" fill-rule="evenodd">
        <g id="Components-/-Product-Cards-/-1920-1440-/-XS-Promo-Non-mem" transform="translate(-16.000000, -16.000000)">
            <g id="Badges" transform="translate(16.000000, 16.000000)">
                <g id="Illustrations-/-No-Under-18">
                    <g id="No-Under-18">
                        <path d="M16,32 C7.163444,32 0,24.836556 0,16 C0,7.163444 7.163444,0 16,0 C24.836556,0 32,7.163444 32,16 C32,24.836556 24.836556,32 16,32 Z" id="Path" fill="#FFFFFF" fill-rule="nonzero"></path>
                        <path d="M16,30 C23.7319865,30 30,23.7319865 30,16 C30,8.2680135 23.7319865,2 16,2 C8.2680135,2 2,8.2680135 2,16 C2,23.7319865 8.2680135,30 16,30 Z M16,32 C7.163444,32 0,24.836556 0,16 C0,7.163444 7.163444,0 16,0 C24.836556,0 32,7.163444 32,16 C32,24.836556 24.836556,32 16,32 Z" id="Oval-2" fill="#919EAB" fill-rule="nonzero"></path>
                        <path d="M13.1432292,24 L10.7291667,24 L10.7291667,17.390625 L10.7526042,16.3046875 L10.7916667,15.1171875 C10.390623,15.5182312 10.1119799,15.7812494 9.95572917,15.90625 L8.64322917,16.9609375 L7.47916667,15.5078125 L11.1588542,12.578125 L13.1432292,12.578125 L13.1432292,24 Z M19.578125,12.4296875 C20.6718805,12.4296875 21.5533821,12.6783829 22.2226562,13.1757812 C22.8919304,13.6731796 23.2265625,14.3437458 23.2265625,15.1875 C23.2265625,15.7708363 23.0651058,16.2903623 22.7421875,16.7460938 C22.4192692,17.2018252 21.8984411,17.6093732 21.1796875,17.96875 C22.0338584,18.4270856 22.6471336,18.9049454 23.0195313,19.4023438 C23.3919289,19.8997421 23.578125,20.4453095 23.578125,21.0390625 C23.578125,21.9765672 23.2109412,22.7304659 22.4765625,23.3007812 C21.7421838,23.8710966 20.7760477,24.15625 19.578125,24.15625 C18.3281188,24.15625 17.3463577,23.8906277 16.6328125,23.359375 C15.9192673,22.8281223 15.5625,22.0755257 15.5625,21.1015625 C15.5625,20.4505176 15.7356754,19.8723984 16.0820312,19.3671875 C16.4283871,18.8619766 16.9843712,18.4166686 17.75,18.03125 C17.0989551,17.6197896 16.6302098,17.1796898 16.34375,16.7109375 C16.0572902,16.2421852 15.9140625,15.7291695 15.9140625,15.171875 C15.9140625,14.3541626 16.2526008,13.6927109 16.9296875,13.1875 C17.6067742,12.6822891 18.4895779,12.4296875 19.578125,12.4296875 Z M17.796875,20.9609375 C17.796875,21.4088564 17.9531234,21.7578113 18.265625,22.0078125 C18.5781266,22.2578137 19.0052056,22.3828125 19.546875,22.3828125 C20.1458363,22.3828125 20.5937485,22.2539075 20.890625,21.9960938 C21.1875015,21.73828 21.3359375,21.3984396 21.3359375,20.9765625 C21.3359375,20.6276024 21.1888036,20.3007828 20.8945313,19.9960938 C20.6002589,19.6914047 20.1223991,19.3671892 19.4609375,19.0234375 C18.351557,19.5338567 17.796875,20.1796836 17.796875,20.9609375 Z M19.5625,14.1953125 C19.1510396,14.1953125 18.8190117,14.3007802 18.5664062,14.5117188 C18.3138008,14.7226573 18.1875,15.0052066 18.1875,15.359375 C18.1875,15.6718766 18.2877594,15.9518217 18.4882812,16.1992188 C18.6888031,16.4466158 19.0520807,16.7005195 19.578125,16.9609375 C20.0885442,16.721353 20.4453115,16.4765637 20.6484375,16.2265625 C20.8515635,15.9765613 20.953125,15.6875016 20.953125,15.359375 C20.953125,14.9999982 20.822918,14.7161469 20.5625,14.5078125 C20.302082,14.2994781 19.968752,14.1953125 19.5625,14.1953125 Z" id="18" fill="#637381" fill-rule="nonzero"></path>
                        <path d="M11.6119675,24 L10.7291667,24 L10.7291667,22.0543737 L13.1432292,19.6403112 L13.1432292,22.4687383 L11.6119675,24 Z M20.3127981,12.4707422 C21.0737634,12.5600495 21.7103788,12.7950614 22.2226562,13.1757813 C22.2638382,13.2063873 22.3037532,13.237649 22.3424011,13.2695664 L20.8144816,14.7974859 C20.7517654,14.6885874 20.6677717,14.5920298 20.5625,14.5078125 C20.302082,14.2994781 19.968752,14.1953125 19.5625,14.1953125 C19.1510396,14.1953125 18.8190117,14.3007802 18.5664062,14.5117188 C18.3138008,14.7226573 18.1875,15.0052066 18.1875,15.359375 C18.1875,15.6718766 18.2877594,15.9518217 18.4882812,16.1992188 C18.6019046,16.3394034 18.7677855,16.4816773 18.9859258,16.6260416 L17.6470278,17.9649397 C17.0493004,17.572597 16.6148777,17.154601 16.34375,16.7109375 C16.3089118,16.6539295 16.2761921,16.5962669 16.2455908,16.5379495 L20.3127981,12.4707422 Z M15.8570818,19.7548857 C15.9214998,19.6212049 15.9964829,19.4919722 16.0820312,19.3671875 C16.3700085,18.9471304 16.8029032,18.5684846 17.380725,18.2312424 L15.8570818,19.7548857 Z" id="Combined-Shape" fill="#454F5B" fill-rule="nonzero"></path>
                        <path d="M10.3191732,8.30630095 L10.3191732,10.4618999 C10.3191732,10.7079949 10.2663851,10.9233248 10.1608073,11.107896 C10.0552295,11.2924672 9.90256176,11.4345014 9.70279948,11.5340028 C9.5030372,11.6335041 9.26416155,11.6832541 8.98616536,11.6832541 C8.57296885,11.6832541 8.251683,11.5738802 8.02229818,11.3551291 C7.79291335,11.136378 7.67822266,10.8355997 7.67822266,10.4527853 L7.67822266,8.30630095 L8.22509766,8.30630095 L8.22509766,10.4140483 C8.22509766,10.6890063 8.2888991,10.8918038 8.41650391,11.0224468 C8.54410871,11.1530898 8.74007029,11.2184103 9.00439453,11.2184103 C9.51785196,11.2184103 9.77457682,10.9487733 9.77457682,10.4094911 L9.77457682,8.30630095 L10.3191732,8.30630095 Z M13.9467773,11.6376812 L13.2791341,11.6376812 L11.6407878,8.98305876 L11.6225586,8.98305876 L11.6339518,9.13117074 C11.6552193,9.41372424 11.6658529,9.67196818 11.6658529,9.90591033 L11.6658529,11.6376812 L11.1713867,11.6376812 L11.1713867,8.30630095 L11.832194,8.30630095 L13.4659831,10.9472515 L13.4796549,10.9472515 C13.4766167,10.9123121 13.4705404,10.7850889 13.4614258,10.5655783 C13.4523112,10.3460676 13.4477539,10.1747911 13.4477539,10.0517437 L13.4477539,8.30630095 L13.9467773,8.30630095 L13.9467773,11.6376812 Z M17.5356445,9.94009001 C17.5356445,10.490006 17.3829768,10.9104119 17.0776367,11.2013205 C16.7722967,11.4922291 16.3325224,11.6376812 15.7583008,11.6376812 L14.8263346,11.6376812 L14.8263346,8.30630095 L15.8562826,8.30630095 C16.3864501,8.30630095 16.7988809,8.44909466 17.0935872,8.73468637 C17.3882936,9.02027807 17.5356445,9.42207527 17.5356445,9.94009001 Z M16.9614258,9.95831918 C16.9614258,9.16078915 16.5884911,8.76203012 15.8426107,8.76203012 L15.370931,8.76203012 L15.370931,11.1796733 L15.7583008,11.1796733 C16.5603881,11.1796733 16.9614258,10.7725594 16.9614258,9.95831918 Z M20.1355794,11.6376812 L18.2511393,11.6376812 L18.2511393,8.30630095 L20.1355794,8.30630095 L20.1355794,8.76658741 L18.7957357,8.76658741 L18.7957357,9.67348845 L20.0512695,9.67348845 L20.0512695,10.1292176 L18.7957357,10.1292176 L18.7957357,11.1751161 L20.1355794,11.1751161 L20.1355794,11.6376812 Z M21.4002279,9.85578012 L21.7784831,9.85578012 C22.0321736,9.85578012 22.2159825,9.80868857 22.3299154,9.71450408 C22.4438482,9.62031958 22.5008138,9.48056403 22.5008138,9.29523324 C22.5008138,9.10686425 22.439291,8.97166594 22.3162435,8.88963428 C22.193196,8.80760262 22.007868,8.76658741 21.7602539,8.76658741 L21.4002279,8.76658741 L21.4002279,9.85578012 Z M21.4002279,10.306952 L21.4002279,11.6376812 L20.8556315,11.6376812 L20.8556315,8.30630095 L21.7967122,8.30630095 C22.2266189,8.30630095 22.5448666,8.3868123 22.7514648,8.54783741 C22.9580631,8.70886252 23.0613607,8.95191565 23.0613607,9.27700408 C23.0613607,9.69171969 22.845651,9.98718115 22.4142253,10.1633973 L23.355306,11.6376812 L22.7355143,11.6376812 L21.9379883,10.306952 L21.4002279,10.306952 Z" id="UNDER" fill="#637381" fill-rule="nonzero"></path>
                        <polygon id="Line" fill="#919EAB" fill-rule="nonzero" points="25.9368843 4.846656 27.3510979 6.26086957 6.26086957 27.3510979 4.846656 25.9368843"></polygon>
                    </g>
                </g>
            </g>
        </g>
    </g>
</svg>